<?xml version="1.0" encoding="utf-8"?>
<!-- Generator: Adobe Illustrator 25.2.1, SVG Export Plug-In . SVG Version: 6.00 Build 0)  -->
<svg version="1.1" xmlns="http://www.w3.org/2000/svg" xmlns:xlink="http://www.w3.org/1999/xlink" x="0px" y="0px"
	 viewBox="0 0 256 256" enable-background="new 0 0 256 256" xml:space="preserve">
<g id="background">
	<rect x="-1906.39" y="-394.07" fill="#FFE045" width="1024" height="1024"/>
	<circle display="none" fill="#FFE045" cx="-1394.39" cy="117.93" r="512"/>
</g>
<g id="button">
	<ellipse fill="#996600" cx="-1396.24" cy="391.5" rx="300.79" ry="73.36"/>
	<ellipse fill="#DD9900" cx="-1395.5" cy="381.96" rx="293.46" ry="73.36"/>
	<rect x="-1688.96" y="264.08" fill="#DD9900" width="586.91" height="117.88"/>
	<ellipse fill="#FFC107" cx="-1395.5" cy="264.08" rx="293.46" ry="73.36"/>
</g>
<g id="shadow">
	<ellipse fill="#E59900" cx="-1375.81" cy="254.31" rx="145.42" ry="30.18"/>
</g>
<g id="beer">
	
		<ellipse transform="matrix(0.1672 -0.9859 0.9859 0.1672 -1369.2782 -1168.3047)" fill="#FFFFFF" cx="-1376.2" cy="226.37" rx="32.05" ry="148.39"/>
	
		<rect x="-1493.46" y="-144.33" transform="matrix(0.9859 0.1672 -0.1672 0.9859 -12.048 225.4817)" fill="#FFFFFF" width="296.78" height="371.05"/>
	
		<rect x="-1467.28" y="-109.49" transform="matrix(0.9859 0.1672 -0.1672 0.9859 -13.5186 225.0553)" fill="#FFDF43" width="248.01" height="283.48"/>
	
		<ellipse transform="matrix(0.1672 -0.9859 0.9859 0.1672 -1307.9827 -1204.5)" fill="#FFCE00" cx="-1366.98" cy="171.99" rx="32.05" ry="124.01"/>
	<path fill="#FFFFFF" d="M-1115.06-67.18l-59.05-10.01l-7.03,41.43l59.05,10.01c15.86,2.69,26.54,17.73,23.85,33.59l-13.98,82.46
		c-3.88,22.89-25.39,27.85-35.98,30.51c-20.96,5.24-37.65,4.57-60.47,5.87c-2.09,12.31-5.9,33.4-7.55,44.54
		c26.68-1.53,55.23-5.62,67.79-8.16c47.84-9.69,70.26-22.11,76.82-60.79l14.82-87.39C-1050.25-23.82-1076.38-60.62-1115.06-67.18z"
		/>
	
		<ellipse transform="matrix(0.1672 -0.9859 0.9859 0.1672 -992.9537 -1390.5262)" fill="#FFFFFF" cx="-1319.58" cy="-107.5" rx="32.05" ry="124.01"/>
	<path fill="#FFF0B0" d="M-1457.06,179.75c-3.96-1.61-13.96-6.76-16.16-8.41c0.17-0.97,41.56-235.11,41.56-235.11l17.22,3.94
		C-1414.44-59.83-1456.82,178.36-1457.06,179.75z"/>
	<g id="foam">
		<circle fill="#FFFFFF" cx="-1456.77" cy="-143.34" r="57.56"/>
		<circle fill="#FFFFFF" cx="-1401.33" cy="-91.55" r="57.56"/>
		<circle fill="#FFFFFF" cx="-1305.65" cy="-98.6" r="57.56"/>
		<circle fill="#FFFFFF" cx="-1287.96" cy="-193.03" r="57.56"/>
		<circle fill="#FFFFFF" cx="-1211.59" cy="-141.93" r="57.56"/>
		<circle fill="#FFFFFF" cx="-1377.23" cy="-185.19" r="57.56"/>
	</g>
	<g id="bables">
		<circle fill="#FFFFFF" cx="-1319.58" cy="149" r="21"/>
		<circle fill="#FFFFFF" cx="-1377.23" cy="87.69" r="21"/>
		<circle fill="#FFFFFF" cx="-1287.96" cy="21.82" r="21"/>
	</g>
</g>
<g id="effect">
	<polygon fill="#FFFFFF" points="-1552.82,129.65 -1597.54,-43.6 -1681.84,-24.17 	"/>
	<polygon fill="#FFFFFF" points="-1561.52,162.88 -1715.12,78.68 -1749.85,148.91 	"/>
	<ellipse fill="#DD9900" cx="130.34" cy="220.37" rx="93.92" ry="23.48"/>
	<rect x="36.42" y="182.64" fill="#DD9900" width="187.84" height="37.73"/>
	<ellipse fill="#FFC107" cx="130.34" cy="182.64" rx="93.92" ry="23.48"/>
	<g>
		<path fill="#FFFFFF" d="M164.06,188.43c-8.82,0-19.23-0.97-30.09-2.82c-12.85-2.18-24.79-5.33-33.63-8.87
			c-5.68-2.28-12.74-5.65-14.97-10.51l-1.4-0.24l15.79-93.09c-8.75-4.65-13.82-14.52-12.11-24.59c1.92-11.3,11.62-19.51,23.07-19.51
			c1.31,0,2.64,0.11,3.94,0.33c0.07,0.01,0.14,0.02,0.22,0.04c3.72-8.22,11.98-13.77,21.3-13.77c1.31,0,2.63,0.11,3.93,0.33
			c3.16,0.54,6.11,1.69,8.75,3.4c4.28-3.97,9.93-6.24,15.89-6.24c1.31,0,2.63,0.11,3.93,0.33c8.91,1.51,15.9,7.82,18.45,16.11
			c0.69-0.06,1.38-0.09,2.07-0.09c1.31,0,2.63,0.11,3.92,0.33c12.73,2.16,21.34,14.28,19.18,27.01c-0.71,4.16-2.49,7.99-5.2,11.19
			l-0.28,1.67l13.12,2.22c7.3,1.24,13.69,5.25,17.99,11.31c4.3,6.05,5.98,13.41,4.75,20.71l-4.74,27.97
			c-2.6,15.37-12.43,20.26-28.52,23.52c-3.16,0.64-10,1.7-17.53,2.35l-3.51,20.71c0,0.37-0.04,0.74-0.1,1.1
			c-0.07,0.4-0.16,0.78-0.28,1.15l-0.53,3.15l-1.26-0.24C182.85,186.81,175.63,188.43,164.06,188.43z M195.99,133.36
			c3.96-0.18,7.37-0.44,11.29-1.43l0.19-0.05c4.5-1.12,7.05-2.36,7.61-5.7l4.48-26.39c0.19-1.14-0.07-2.28-0.74-3.22
			c-0.67-0.94-1.66-1.57-2.8-1.76l-13.12-2.22L195.99,133.36z"/>
		<path fill="#FFC107" d="M164.75,17.91c1.02,0,2.06,0.09,3.1,0.26c8.64,1.47,14.83,8.73,15.3,17.12c1.91-0.67,3.95-1.03,6.05-1.03
			c1.02,0,2.05,0.08,3.09,0.26c10.03,1.7,16.78,11.21,15.08,21.24c-0.65,3.82-2.44,7.17-4.95,9.75l-1.36,8.03l18.05,3.06
			c12.38,2.1,20.74,13.88,18.64,26.26L233,130.85c-2.1,12.38-9.27,16.35-24.59,19.46c-3.88,0.79-12.53,2.03-20.81,2.56l-4.23,24.93
			l-0.04-0.01c0.04,0.25,0.05,0.49,0.01,0.73c-0.55,3.23-8.05,4.92-19.28,4.92c-8.19,0-18.36-0.9-29.26-2.75
			c-25.86-4.39-46.06-12.47-45.11-18.05c0.04-0.24,0.13-0.47,0.25-0.69l-0.21-0.04l15.61-92.06c-8.73-2.66-14.34-11.44-12.77-20.68
			c1.52-8.99,9.32-15.35,18.14-15.35c1.02,0,2.06,0.09,3.1,0.26c1.52,0.26,2.95,0.71,4.3,1.3c1.68-8.78,9.37-14.96,18.06-14.96
			c1.02,0,2.06,0.09,3.1,0.26c4.05,0.69,7.55,2.66,10.19,5.41C152.82,21.08,158.53,17.91,164.75,17.91 M190.02,138.62
			c6.85-0.35,12.04-0.23,18.47-1.83c3.39-0.85,10.27-2.44,11.52-9.76l4.48-26.39c0.86-5.08-2.56-9.89-7.63-10.75l-18.05-3.06
			L190.02,138.62 M164.75,7.91L164.75,7.91c-5.97,0-11.68,1.87-16.41,5.23c-2.32-1.1-4.8-1.88-7.39-2.32
			c-1.58-0.27-3.18-0.4-4.77-0.4c-10.03,0-19.04,5.28-24.11,13.43c-0.45-0.02-0.9-0.03-1.35-0.03c-13.9,0-25.67,9.96-28,23.67
			c-1.86,10.96,2.9,21.72,11.55,27.9l-14.39,84.85l-1.67,9.86l4.08,0.69c1.05,1.47,2.49,2.97,4.45,4.43
			c2.85,2.12,6.8,4.2,11.75,6.18c9.16,3.67,21.46,6.92,34.65,9.15c11.13,1.89,21.83,2.89,30.93,2.89c5.24,0,16.64,0,23.59-4.78
			l3.87,0.66l1.31-7.54c0.15-0.51,0.27-1.04,0.37-1.59c0.08-0.47,0.13-0.94,0.15-1.43l2.82-16.6c5.68-0.6,10.98-1.4,14.23-2.05
			c13.92-2.82,29.05-7.51,32.46-27.59l4.74-27.97c3.02-17.82-9.01-34.77-26.83-37.79l-6.29-1.07c1.32-2.57,2.25-5.35,2.74-8.25
			c2.62-15.45-7.82-30.15-23.27-32.77c-1.13-0.19-2.28-0.32-3.43-0.37C186.7,16.03,179,9.93,169.51,8.32
			C167.94,8.05,166.34,7.91,164.75,7.91L164.75,7.91z M201.99,127.86l5-29.51l7.52,1.27l-4.36,25.72c-0.04,0.21-0.07,0.29-0.07,0.29
			c-0.5,0.57-2.91,1.17-3.82,1.4l-0.19,0.05C204.67,127.43,203.33,127.68,201.99,127.86L201.99,127.86z"/>
	</g>
	
		<rect x="107.37" y="63.07" transform="matrix(0.9859 0.1672 -0.1672 0.9859 20.2018 -23.0623)" fill="#FFDF43" width="79.38" height="90.73"/>
	
		<ellipse transform="matrix(0.1672 -0.9859 0.9859 0.1672 -34.8559 265.066)" fill="#FFCE00" cx="139.47" cy="153.17" rx="10.26" ry="39.69"/>
	
		<ellipse transform="matrix(0.1672 -0.9859 0.9859 0.1672 65.9705 205.5275)" fill="#FFFFFF" cx="154.64" cy="63.71" rx="10.26" ry="39.69"/>
	<path fill="#FFF0B0" d="M110.64,155.65c-1.27-0.51-4.47-2.16-5.17-2.69c0.05-0.31,13.3-75.25,13.3-75.25l5.51,1.26
		C124.28,78.97,110.72,155.2,110.64,155.65z"/>
	<circle fill="#FFFFFF" cx="128.48" cy="68.82" r="18.42"/>
	<circle fill="#FFFFFF" cx="159.1" cy="66.56" r="18.42"/>
	<circle fill="#FFFFFF" cx="154.64" cy="145.81" r="6.72"/>
	<circle fill="#FFFFFF" cx="136.19" cy="126.19" r="6.72"/>
	<circle fill="#FFFFFF" cx="164.76" cy="105.1" r="6.72"/>
	<g>
		<polygon fill="#FFC107" points="79.99,139.61 65.68,84.16 38.7,90.38 		"/>
	</g>
	<g>
		<polygon fill="#FFC107" points="77.21,150.25 28.05,123.3 16.93,145.78 		"/>
	</g>
</g>
</svg>
